<svg width="41" height="51" viewBox="0 0 41 51" fill="none" xmlns="http://www.w3.org/2000/svg">
<g id="Apple svg" clip-path="url(#clip0_13_97)">
<g id="Group">
<path id="Vector" d="M39.7157 17.4C36.3566 19.5 34.2819 23.1 34.2819 27.1C34.2819 31.6 36.9494 35.7 41 37.4C40.2096 40 39.0241 42.4 37.5422 44.6C35.3687 47.7 33.0964 50.9 29.7374 50.9C26.3783 50.9 25.3904 48.9 21.4386 48.9C17.5855 48.9 16.2024 51 13.041 51C9.87952 51 7.70602 48.1 5.23615 44.5C1.9759 39.5 0.0987952 33.7 0 27.6C0 17.7 6.32289 12.4 12.6458 12.4C16.0048 12.4 18.7711 14.6 20.8458 14.6C22.8217 14.6 25.9831 12.3 29.7374 12.3C33.6892 12.2 37.4434 14.1 39.7157 17.4ZM27.959 8.1C29.6386 6.1 30.5277 3.6 30.6265 1C30.6265 0.7 30.6265 0.3 30.5277 0C27.6627 0.3 24.9952 1.7 23.1181 3.9C21.4386 5.8 20.4506 8.2 20.3518 10.8C20.3518 11.1 20.3518 11.4 20.4506 11.7C20.6482 11.7 20.9446 11.8 21.1422 11.8C23.8096 11.6 26.2795 10.2 27.959 8.1Z" fill="white"/>
</g>
</g>
<defs>
<clipPath id="clip0_13_97">
<rect width="41" height="51" fill="white"/>
</clipPath>
</defs>
</svg>
