<svg width="46" height="46" viewBox="0 0 46 46" fill="none" xmlns="http://www.w3.org/2000/svg">
<g id="Google svg">
<path id="Vector" d="M43.24 23.4792C43.24 21.9842 43.1058 20.5467 42.8567 19.1667H23V27.3221H34.3467C33.8579 29.9575 32.3725 32.1904 30.1396 33.6854V38.9754H36.9533C40.94 35.305 43.24 29.9 43.24 23.4792Z" fill="#4285F4"/>
<path id="Vector_2" d="M23 44.0833C28.6925 44.0833 33.465 42.1954 36.9533 38.9754L30.1396 33.6854C28.2517 34.9504 25.8367 35.6979 23 35.6979C17.5088 35.6979 12.8608 31.9892 11.2029 27.0058H4.15918V32.4683C7.62835 39.3587 14.7583 44.0833 23 44.0833Z" fill="#34A853"/>
<path id="Vector_3" d="M11.2029 27.0058C10.7813 25.7408 10.5417 24.3896 10.5417 23C10.5417 21.6104 10.7813 20.2592 11.2029 18.9942V13.5317H4.15919C2.68335 16.4697 1.91539 19.7122 1.91669 23C1.91669 26.4021 2.73127 29.6221 4.15919 32.4683L11.2029 27.0058Z" fill="#FBBC05"/>
<path id="Vector_4" d="M23 10.3021C26.0954 10.3021 28.8746 11.3658 31.0596 13.455L37.1067 7.40791C33.4554 4.00582 28.6829 1.91666 23 1.91666C14.7583 1.91666 7.62835 6.64124 4.15918 13.5317L11.2029 18.9942C12.8608 14.0108 17.5088 10.3021 23 10.3021Z" fill="#EA4335"/>
</g>
</svg>
